solid games/b01t-666ax
  facet normal 8.137335e-1 -5.812382e-1 0.000000e+0
    outer loop
      vertex 0.000000e+0 0.000000e+0 0.000000e+0
      vertex 5.000000e+0 7.000000e+0 0.000000e+0
      vertex 5.000000e+0 7.000000e+0 6.000000e+0
    endloop
  endfacet
  facet normal 8.137335e-1 -5.812382e-1 0.000000e+0
    outer loop
      vertex 0.000000e+0 0.000000e+0 0.000000e+0
      vertex 5.000000e+0 7.000000e+0 6.000000e+0
      vertex 0.000000e+0 0.000000e+0 6.000000e+0
    endloop
  endfacet
  facet normal 0.000000e+0 1.000000e+0 0.000000e+0
    outer loop
      vertex 5.000000e+0 7.000000e+0 0.000000e+0
      vertex 1.500000e+0 7.000000e+0 0.000000e+0
      vertex 1.500000e+0 7.000000e+0 6.000000e+0
    endloop
  endfacet
  facet normal 0.000000e+0 1.000000e+0 0.000000e+0
    outer loop
      vertex 5.000000e+0 7.000000e+0 0.000000e+0
      vertex 1.500000e+0 7.000000e+0 6.000000e+0
      vertex 5.000000e+0 7.000000e+0 6.000000e+0
    endloop
  endfacet
  facet normal 9.544800e-1 -2.982750e-1 0.000000e+0
    outer loop
      vertex 1.500000e+0 7.000000e+0 0.000000e+0
      vertex 4.000000e+0 1.500000e+1 0.000000e+0
      vertex 4.000000e+0 1.500000e+1 6.000000e+0
    endloop
  endfacet
  facet normal 9.544800e-1 -2.982750e-1 0.000000e+0
    outer loop
      vertex 1.500000e+0 7.000000e+0 0.000000e+0
      vertex 4.000000e+0 1.500000e+1 6.000000e+0
      vertex 1.500000e+0 7.000000e+0 6.000000e+0
    endloop
  endfacet
  facet normal -8.320503e-1 -5.547002e-1 0.000000e+0
    outer loop
      vertex 4.000000e+0 1.500000e+1 0.000000e+0
      vertex 1.100000e+1 4.500000e+0 0.000000e+0
      vertex 1.100000e+1 4.500000e+0 6.000000e+0
    endloop
  endfacet
  facet normal -8.320503e-1 -5.547002e-1 0.000000e+0
    outer loop
      vertex 4.000000e+0 1.500000e+1 0.000000e+0
      vertex 1.100000e+1 4.500000e+0 6.000000e+0
      vertex 4.000000e+0 1.500000e+1 6.000000e+0
    endloop
  endfacet
  facet normal 0.000000e+0 1.000000e+0 0.000000e+0
    outer loop
      vertex 1.100000e+1 4.500000e+0 0.000000e+0
      vertex 6.000000e+0 4.500000e+0 0.000000e+0
      vertex 6.000000e+0 4.500000e+0 6.000000e+0
    endloop
  endfacet
  facet normal 0.000000e+0 1.000000e+0 0.000000e+0
    outer loop
      vertex 1.100000e+1 4.500000e+0 0.000000e+0
      vertex 6.000000e+0 4.500000e+0 6.000000e+0
      vertex 1.100000e+1 4.500000e+0 6.000000e+0
    endloop
  endfacet
  facet normal -8.778956e-1 -4.788521e-1 0.000000e+0
    outer loop
      vertex 6.000000e+0 4.500000e+0 0.000000e+0
      vertex 9.000000e+0 -1.000000e+0 0.000000e+0
      vertex 9.000000e+0 -1.000000e+0 6.000000e+0
    endloop
  endfacet
  facet normal -8.778956e-1 -4.788521e-1 0.000000e+0
    outer loop
      vertex 6.000000e+0 4.500000e+0 0.000000e+0
      vertex 9.000000e+0 -1.000000e+0 6.000000e+0
      vertex 6.000000e+0 4.500000e+0 6.000000e+0
    endloop
  endfacet
  facet normal 1.104315e-1 9.938837e-1 0.000000e+0
    outer loop
      vertex 9.000000e+0 -1.000000e+0 0.000000e+0
      vertex 0.000000e+0 0.000000e+0 0.000000e+0
      vertex 0.000000e+0 0.000000e+0 6.000000e+0
    endloop
  endfacet
  facet normal 1.104315e-1 9.938837e-1 0.000000e+0
    outer loop
      vertex 9.000000e+0 -1.000000e+0 0.000000e+0
      vertex 0.000000e+0 0.000000e+0 6.000000e+0
      vertex 9.000000e+0 -1.000000e+0 6.000000e+0
    endloop
  endfacet
  facet normal 0.000000e+0 0.000000e+0 -1.000000e+0
    outer loop
      vertex 0.000000e+0 0.000000e+0 6.000000e+0
      vertex 1.500000e+0 7.000000e+0 6.000000e+0
      vertex 5.000000e+0 7.000000e+0 6.000000e+0
    endloop
  endfacet
  facet normal 0.000000e+0 0.000000e+0 1.000000e+0
    outer loop
      vertex 0.000000e+0 0.000000e+0 0.000000e+0
      vertex 5.000000e+0 7.000000e+0 0.000000e+0
      vertex 1.500000e+0 7.000000e+0 0.000000e+0
    endloop
  endfacet
  facet normal 0.000000e+0 0.000000e+0 1.000000e+0
    outer loop
      vertex 0.000000e+0 0.000000e+0 6.000000e+0
      vertex 4.000000e+0 1.500000e+1 6.000000e+0
      vertex 1.500000e+0 7.000000e+0 6.000000e+0
    endloop
  endfacet
  facet normal 0.000000e+0 0.000000e+0 -1.000000e+0
    outer loop
      vertex 0.000000e+0 0.000000e+0 0.000000e+0
      vertex 1.500000e+0 7.000000e+0 0.000000e+0
      vertex 4.000000e+0 1.500000e+1 0.000000e+0
    endloop
  endfacet
  facet normal 0.000000e+0 0.000000e+0 1.000000e+0
    outer loop
      vertex 0.000000e+0 0.000000e+0 6.000000e+0
      vertex 1.100000e+1 4.500000e+0 6.000000e+0
      vertex 4.000000e+0 1.500000e+1 6.000000e+0
    endloop
  endfacet
  facet normal 0.000000e+0 0.000000e+0 -1.000000e+0
    outer loop
      vertex 0.000000e+0 0.000000e+0 0.000000e+0
      vertex 4.000000e+0 1.500000e+1 0.000000e+0
      vertex 1.100000e+1 4.500000e+0 0.000000e+0
    endloop
  endfacet
  facet normal 0.000000e+0 0.000000e+0 -1.000000e+0
    outer loop
      vertex 0.000000e+0 0.000000e+0 6.000000e+0
      vertex 6.000000e+0 4.500000e+0 6.000000e+0
      vertex 1.100000e+1 4.500000e+0 6.000000e+0
    endloop
  endfacet
  facet normal 0.000000e+0 0.000000e+0 1.000000e+0
    outer loop
      vertex 0.000000e+0 0.000000e+0 0.000000e+0
      vertex 1.100000e+1 4.500000e+0 0.000000e+0
      vertex 6.000000e+0 4.500000e+0 0.000000e+0
    endloop
  endfacet
  facet normal 0.000000e+0 0.000000e+0 1.000000e+0
    outer loop
      vertex 0.000000e+0 0.000000e+0 6.000000e+0
      vertex 9.000000e+0 -1.000000e+0 6.000000e+0
      vertex 6.000000e+0 4.500000e+0 6.000000e+0
    endloop
  endfacet
  facet normal 0.000000e+0 0.000000e+0 -1.000000e+0
    outer loop
      vertex 0.000000e+0 0.000000e+0 0.000000e+0
      vertex 6.000000e+0 4.500000e+0 0.000000e+0
      vertex 9.000000e+0 -1.000000e+0 0.000000e+0
    endloop
  endfacet
endsolid games/b01t-666ax
